<?xml version="1.0" standalone="no"?>
<!DOCTYPE svg PUBLIC "-//W3C//DTD SVG 20010904//EN"
 "http://www.w3.org/TR/2001/REC-SVG-20010904/DTD/svg10.dtd">
<svg version="1.0" xmlns="http://www.w3.org/2000/svg"
 width="852.000000pt" height="852.000000pt" viewBox="0 0 852.000000 852.000000"
 preserveAspectRatio="xMidYMid meet">
<metadata>
Created by potrace 1.14, written by Peter Selinger 2001-2017
</metadata>
<g transform="translate(0.000000,852.000000) scale(0.100000,-0.100000)"
fill="#000000" stroke="none">
<path d="M3376 7084 l-255 -255 123 -122 c67 -67 182 -181 254 -254 l131 -132
255 254 255 254 -254 255 -254 255 -255 -255z"/>
<path d="M4513 7084 l-252 -254 255 -254 254 -255 123 123 c67 68 181 182 254
254 l132 132 -256 255 c-140 140 -256 255 -256 254 -1 -1 -115 -115 -254 -255z"/>
<path d="M5770 6755 c-10 -12 -16 -13 -28 -3 -9 7 -13 8 -10 3 5 -7 -23 -11
-83 -10 -49 0 -89 -4 -89 -9 0 -4 -6 -3 -13 3 -8 6 -16 9 -18 7 -2 -2 -17 -6
-32 -10 -20 -5 -27 -3 -22 5 5 8 2 8 -11 2 -11 -5 -40 -9 -66 -8 -28 1 -48 -2
-48 -8 0 -7 -4 -7 -12 1 -16 16 -31 15 -22 0 6 -10 5 -10 -7 -2 -11 9 -17 9
-26 -1 -6 -7 -11 -14 -9 -16 1 -2 -112 -117 -251 -256 l-254 -251 -243 243
c-134 135 -250 246 -257 247 -8 2 -17 7 -21 12 -4 6 -12 6 -20 0 -15 -12 -28
-12 -45 -1 -6 4 -15 2 -19 -4 -5 -8 -9 -8 -14 1 -5 8 -93 -73 -264 -243 l-256
-255 -253 251 -252 252 -190 2 c-104 2 -207 4 -227 6 -21 2 -38 0 -38 -5 0 -4
-4 -8 -10 -8 -5 0 -6 7 -3 17 4 11 3 14 -5 9 -20 -12 -51 -15 -57 -6 -3 6 -16
5 -30 0 -18 -7 -25 -6 -25 3 0 8 -3 8 -9 -2 -5 -7 -11 -9 -14 -4 -5 7 -50 9
-67 3 -3 -1 -9 -1 -15 0 -30 7 -105 5 -105 -3 0 -5 -8 -3 -17 4 -11 10 -14 10
-9 2 4 -7 3 -13 -1 -13 -5 0 -9 -9 -10 -20 -1 -13 2 -18 10 -13 7 4 6 0 -2
-10 -7 -9 -10 -17 -7 -17 4 0 2 -10 -5 -21 -8 -15 -8 -19 0 -15 6 4 11 2 11
-3 0 -6 -6 -11 -12 -11 -9 0 -8 -4 2 -10 9 -6 11 -13 5 -17 -6 -5 -10 -68 -10
-153 0 -80 -4 -153 -8 -164 -7 -13 -6 -16 3 -11 9 6 9 3 1 -12 -7 -14 -7 -23
1 -31 7 -7 8 -12 2 -12 -5 0 -9 -12 -9 -27 1 -16 -4 -34 -9 -42 -8 -11 -8 -13
0 -8 7 4 9 -15 6 -61 -3 -37 -5 -120 -6 -184 0 -65 -5 -118 -9 -118 -4 0 -3
-8 2 -19 6 -10 8 -21 4 -24 -3 -4 -7 -54 -9 -112 -3 -101 -2 -105 17 -95 13 8
19 8 19 0 0 -8 6 -8 20 0 15 8 20 8 20 -2 0 -10 2 -10 9 1 5 7 15 11 22 9 8
-3 24 -1 36 3 13 5 25 4 29 -2 3 -5 11 -6 17 -2 7 5 23 8 37 8 14 0 28 5 33
10 5 7 10 7 15 0 9 -12 53 -15 46 -3 -3 5 6 7 20 4 14 -3 26 -2 26 2 0 4 33 7
73 7 39 -1 79 2 88 7 9 4 22 2 29 -5 10 -9 11 -9 5 2 -6 10 -2 11 15 6 17 -6
21 -4 14 6 -6 12 -5 12 8 1 12 -10 18 -10 23 -1 6 8 10 7 16 -2 5 -8 9 -9 9
-4 0 6 17 10 37 9 21 0 46 3 57 9 14 7 17 6 10 -5 -6 -11 -5 -11 9 1 14 11 17
11 17 0 0 -10 3 -10 12 -1 14 14 32 16 23 2 -3 -6 1 -7 9 -4 9 3 13 10 10 15
-3 5 6 5 20 -1 19 -7 26 -6 26 3 0 8 4 7 10 -3 6 -9 10 -10 10 -3 0 8 13 11
37 8 21 -2 44 1 50 7 9 7 13 7 13 -1 0 -8 5 -9 19 -2 10 6 35 9 55 7 20 -1 36
0 36 3 0 3 29 6 65 5 35 0 62 2 60 6 -2 4 2 7 10 7 8 0 15 -5 15 -10 0 -5 7
-4 15 3 8 6 19 9 24 6 5 -4 12 -2 16 4 4 6 12 7 18 3 15 -9 47 -12 47 -3 0 3
27 6 61 5 33 0 62 2 65 6 2 3 16 5 31 4 15 -1 42 2 60 6 21 4 34 3 37 -5 3 -7
5 -6 5 2 1 7 6 10 11 7 6 -4 18 -1 27 7 10 8 14 8 10 1 -5 -8 1 -11 20 -8 16
2 29 4 31 6 8 6 28 3 34 -6 5 -7 8 -7 8 1 0 6 25 12 58 14 31 1 68 3 82 4 14
0 31 5 38 9 7 5 12 4 12 -3 0 -6 5 -8 12 -4 10 7 40 10 155 17 23 1 45 6 49
10 4 4 13 2 21 -4 7 -6 13 -7 13 -2 0 5 21 9 48 9 71 1 136 7 147 13 17 9 50
7 57 -4 5 -6 8 -6 8 3 0 6 4 12 10 12 5 0 9 -6 7 -12 -3 -17 -23 -38 -37 -38
-6 0 -9 -4 -5 -9 3 -5 -5 -17 -17 -25 -12 -9 -18 -16 -13 -16 6 0 -2 -11 -17
-24 -16 -13 -28 -28 -28 -35 0 -6 -7 -11 -16 -11 -8 0 -13 -4 -9 -9 3 -6 -4
-15 -16 -21 -11 -7 -18 -14 -16 -17 3 -3 -8 -18 -24 -34 -16 -15 -29 -33 -29
-39 0 -6 -4 -8 -10 -5 -5 3 -10 -1 -10 -9 0 -9 -7 -16 -15 -16 -8 0 -14 -4
-13 -8 2 -5 -14 -29 -36 -53 -21 -24 -52 -62 -70 -83 -17 -21 -43 -51 -58 -66
-16 -15 -28 -32 -28 -39 0 -6 -7 -11 -15 -11 -9 0 -12 -6 -8 -17 4 -11 3 -14
-5 -9 -7 4 -12 3 -12 -2 0 -5 -15 -24 -32 -43 -18 -19 -48 -54 -67 -79 -19
-25 -42 -50 -50 -57 -9 -7 -12 -13 -8 -13 4 0 -7 -15 -25 -33 -45 -46 -88 -99
-88 -110 0 -4 -4 -6 -9 -3 -5 3 -12 -2 -16 -12 -3 -9 -7 -19 -8 -22 -6 -13
-43 -46 -49 -43 -5 2 -8 -5 -8 -17 0 -12 -4 -18 -10 -15 -5 3 -10 1 -10 -5 0
-6 -15 -27 -32 -47 -18 -19 -31 -41 -30 -47 2 -6 1 -8 -3 -4 -7 6 -45 -26 -45
-39 0 -7 -7 -15 -58 -70 -17 -18 -28 -33 -25 -33 3 0 -5 -9 -18 -20 -13 -10
-21 -19 -16 -20 4 0 -11 -18 -32 -39 -22 -22 -37 -42 -34 -44 2 -3 -5 -11 -17
-17 -12 -6 -19 -14 -17 -17 3 -2 -8 -17 -24 -32 -16 -16 -29 -33 -29 -40 0 -6
-7 -11 -16 -11 -9 0 -14 -5 -12 -12 2 -6 -13 -28 -35 -50 -21 -21 -35 -38 -30
-38 4 0 -5 -11 -21 -25 -16 -14 -26 -25 -22 -25 4 0 -4 -10 -17 -22 -13 -13
-29 -33 -36 -45 -6 -13 -19 -23 -27 -23 -8 0 -13 -4 -10 -9 3 -5 -12 -27 -33
-50 -21 -22 -36 -41 -32 -41 3 -1 -5 -10 -18 -20 -13 -11 -20 -20 -17 -20 3 0
-2 -8 -11 -19 -10 -10 -29 -33 -43 -51 -14 -18 -37 -46 -52 -61 -16 -16 -28
-35 -28 -44 0 -9 -4 -14 -9 -11 -5 3 -20 -12 -35 -34 -14 -22 -31 -40 -36 -40
-6 0 -10 -5 -10 -11 0 -6 -6 -16 -12 -23 -7 -7 -24 -27 -38 -45 -14 -19 -33
-40 -42 -49 -9 -9 -15 -19 -12 -24 3 -4 1 -8 -5 -8 -6 0 -21 -16 -34 -35 -13
-19 -27 -32 -30 -28 -4 3 -7 -1 -7 -10 0 -9 -4 -17 -9 -17 -5 0 -11 -9 -14
-21 -3 -12 -10 -18 -16 -14 -6 3 -11 0 -11 -8 0 -18 -35 -59 -44 -50 -3 3 -6
0 -6 -9 0 -8 -13 -29 -30 -48 -16 -18 -27 -37 -23 -43 3 -6 1 -7 -5 -3 -7 4
-12 0 -12 -10 0 -10 -3 -14 -7 -11 -5 6 -41 -34 -35 -40 5 -6 -33 -40 -41 -36
-4 2 -7 -3 -7 -11 0 -8 -6 -19 -14 -23 -8 -4 -14 -10 -13 -13 1 -3 -6 -16 -16
-30 -9 -13 -17 -20 -17 -15 -1 6 -9 -6 -19 -25 -11 -19 -22 -34 -25 -32 -15 6
-19 1 -6 -8 13 -8 12 -10 -2 -10 -10 0 -18 -7 -18 -16 0 -8 -4 -12 -10 -9 -5
3 -10 0 -10 -7 0 -7 -15 -30 -33 -50 -17 -21 -43 -52 -57 -69 -14 -18 -34 -42
-45 -53 -11 -12 -19 -24 -18 -28 2 -5 -2 -8 -8 -8 -5 0 -8 -4 -5 -9 3 -5 -1
-12 -10 -15 -13 -5 -15 -18 -12 -66 1 -33 -1 -60 -5 -60 -4 0 -3 -9 3 -20 8
-14 8 -20 0 -20 -6 0 -8 -5 -4 -12 4 -6 7 -46 7 -87 0 -45 4 -79 11 -83 8 -6
8 -8 0 -8 -6 0 -11 -11 -12 -25 0 -16 5 -22 12 -18 7 4 6 1 -1 -9 -7 -8 -10
-17 -7 -21 3 -3 0 -15 -6 -27 -7 -12 -8 -20 -2 -16 13 8 10 -67 -3 -76 -6 -5
-6 -8 1 -8 6 0 10 -12 8 -28 -2 -15 -5 -87 -6 -160 -1 -74 -6 -136 -11 -139
-4 -3 -2 -12 5 -21 10 -12 10 -16 1 -19 -9 -3 -10 -10 -3 -23 7 -13 7 -21 0
-25 -8 -5 -7 -11 1 -21 6 -8 8 -14 3 -14 -15 0 -15 -160 -1 -161 61 -5 127 -2
127 6 0 6 5 3 10 -5 5 -8 10 -10 10 -5 0 11 50 12 68 1 8 -4 12 0 12 11 0 11
3 14 8 7 9 -14 74 -14 84 1 5 6 8 6 8 -2 0 -7 5 -13 11 -13 5 0 7 6 3 12 -5 9
-2 9 9 -1 13 -10 17 -10 17 -1 0 10 3 10 15 0 11 -9 15 -9 15 -1 0 9 5 9 20 1
12 -6 20 -7 20 -1 0 10 19 9 37 -2 6 -4 14 -4 17 1 3 5 26 8 51 7 25 0 45 4
45 9 0 7 3 8 8 1 4 -5 30 -10 57 -10 28 0 53 5 57 10 5 6 8 4 8 -5 0 -13 1
-13 10 0 9 13 11 13 20 0 5 -8 10 -10 10 -5 0 6 23 10 53 9 28 0 60 4 71 9 12
6 16 6 12 -1 -3 -6 4 -9 18 -8 13 0 22 4 20 7 -5 8 49 4 64 -5 6 -3 13 -3 15
1 3 5 57 8 121 8 67 0 116 4 116 10 0 5 5 4 12 -3 7 -7 17 -8 30 -1 13 7 18 6
18 -3 0 -6 7 -3 16 8 8 10 13 14 10 7 -5 -8 4 -11 29 -10 19 1 35 6 35 11 0 6
6 1 14 -9 13 -18 13 -18 24 1 8 14 12 15 12 4 0 -13 1 -13 10 0 7 11 10 11 10
2 0 -8 6 -10 18 -5 9 4 95 8 189 8 95 0 173 3 173 7 0 4 10 4 23 0 25 -9 67
-8 91 1 10 4 15 3 12 -2 -3 -5 1 -12 10 -15 8 -3 12 -2 9 4 -3 6 -2 10 4 10 5
0 13 -5 16 -10 4 -7 11 -7 18 -2 14 10 88 9 105 -2 7 -4 12 -3 12 2 0 10 30 9
48 -2 7 -4 12 -2 12 6 0 9 3 9 10 -2 9 -13 10 -13 10 0 0 9 3 11 8 5 10 -14
42 -15 42 -1 0 6 5 4 10 -4 7 -11 10 -11 10 -2 0 7 5 10 10 7 6 -4 7 -11 4
-17 -5 -7 -2 -8 7 -2 18 11 39 12 61 2 14 -7 16 -5 11 9 -6 16 -5 16 10 4 9
-7 17 -10 17 -6 0 4 8 1 17 -6 15 -12 16 -12 8 1 -8 13 -7 13 8 1 14 -11 17
-11 17 0 0 11 2 11 10 -1 7 -11 10 -11 10 -2 0 7 4 11 9 8 16 -10 112 -15 106
-6 -3 5 7 5 22 1 16 -4 57 -7 93 -7 36 1 68 -3 72 -9 5 -6 8 -5 8 2 0 9 7 10
25 3 14 -5 25 -6 25 -2 0 4 9 8 20 8 11 0 20 -3 20 -7 0 -8 57 -2 72 7 6 4 8
2 4 -4 -4 -7 5 -10 26 -8 18 2 43 -1 56 -5 13 -5 21 -5 18 -1 -6 10 56 8 73
-2 6 -4 11 -2 11 4 0 8 6 8 20 0 15 -8 20 -8 20 1 0 7 4 8 13 2 6 -5 56 -8
110 -8 61 1 97 -3 97 -10 0 -6 3 -7 8 0 10 14 32 17 32 4 0 -8 6 -7 17 2 15
12 16 12 8 -1 -8 -13 -7 -13 8 -1 14 11 17 11 17 0 0 -12 2 -12 9 0 6 9 11 10
15 2 5 -7 13 -8 25 -1 12 6 22 5 28 -1 8 -8 13 -7 18 1 5 8 11 8 21 -1 11 -9
18 -9 26 -1 9 9 16 8 29 -4 9 -8 19 -11 22 -7 3 5 31 6 61 3 36 -4 56 -2 56 4
0 6 5 4 10 -4 7 -11 10 -11 10 -2 0 7 5 10 11 6 14 -8 139 -12 140 -4 0 3 2
13 4 23 2 9 -1 17 -7 17 -6 0 -4 7 3 17 12 15 12 16 -1 8 -12 -6 -13 -5 -3 5
9 9 9 19 2 33 -6 11 -7 17 -2 14 5 -3 9 3 9 13 0 10 -4 16 -8 14 -11 -7 -10 4
3 28 8 15 8 19 0 14 -6 -4 -11 -3 -11 3 0 5 4 12 10 16 5 3 7 12 4 20 -4 8
-11 12 -17 8 -6 -4 -7 -1 -1 8 4 8 7 55 5 104 -1 50 -3 133 -5 185 -1 52 -6
101 -10 109 -6 10 -5 12 2 7 7 -4 12 -3 12 3 0 5 -5 13 -10 16 -7 4 -6 13 1
27 8 16 8 22 -2 29 -10 6 -10 10 0 23 11 12 11 16 1 16 -9 0 -10 3 -1 13 6 8
7 17 3 21 -12 13 -11 107 2 99 8 -5 8 -3 0 8 -7 8 -13 57 -14 114 -3 181 -3
177 -27 186 -15 5 -23 5 -23 -2 0 -6 -5 -7 -10 -4 -18 11 -520 11 -520 0 0 -7
-3 -7 -8 0 -8 12 -102 14 -102 2 0 -5 -5 -5 -10 -2 -18 11 -520 11 -520 0 0
-7 -3 -7 -8 0 -8 12 -102 14 -102 2 0 -5 -5 -5 -10 -2 -18 11 -520 11 -520 0
0 -7 -3 -7 -8 0 -8 12 -102 14 -102 2 0 -5 -5 -5 -11 -1 -7 4 -77 6 -155 5
-79 -1 -144 1 -144 4 0 9 68 66 75 63 4 -2 13 8 20 22 7 14 17 25 22 24 4 -1
18 13 31 29 12 17 22 28 22 24 0 -4 8 1 19 11 10 9 18 22 17 27 -1 6 4 10 9 9
6 0 20 10 32 23 12 12 20 23 17 23 -3 0 1 6 8 14 7 8 16 12 21 9 4 -2 7 1 7 6
0 11 18 31 137 156 33 36 59 65 56 65 -3 0 8 14 26 30 17 17 31 34 31 38 0 4
18 24 40 45 22 20 36 37 32 37 -4 1 4 10 17 20 13 11 21 20 17 20 -3 0 5 10
17 23 12 13 26 21 31 19 5 -3 6 0 3 5 -4 6 3 21 16 35 12 13 38 43 57 67 19
23 43 53 53 64 10 12 28 35 40 51 12 15 30 36 40 44 9 9 17 22 17 30 0 7 4 11
9 8 9 -6 26 22 23 37 -1 4 5 7 14 7 8 0 13 4 10 8 -3 5 4 15 15 22 10 8 19 18
19 22 0 4 8 16 18 26 33 36 50 60 45 65 -2 3 5 8 16 12 12 3 19 11 16 16 -4 5
1 12 9 15 9 3 16 12 16 20 0 8 5 14 12 14 6 0 9 2 6 5 -3 3 6 18 21 34 39 41
62 71 54 71 -4 0 3 7 15 16 12 8 22 19 22 25 0 5 8 18 18 28 56 61 72 83 67
91 -4 6 0 10 7 10 8 0 21 12 30 28 9 15 26 38 37 52 11 14 24 30 29 35 4 6 8
13 8 17 -1 4 6 13 15 20 8 7 35 40 60 73 24 33 49 65 54 71 6 6 17 22 25 34 8
13 23 30 32 38 9 9 15 19 12 24 -3 4 2 11 10 14 9 3 16 13 16 21 0 8 5 11 12
7 8 -5 9 -2 5 10 -4 9 -3 15 1 12 5 -3 16 8 26 25 9 16 22 29 27 29 6 0 8 4 5
8 -3 4 10 25 29 45 19 20 31 37 27 37 -4 0 -2 4 3 8 6 4 37 43 68 87 32 44 70
95 85 114 15 18 26 37 24 42 -1 5 5 9 14 9 8 0 12 5 9 10 -3 6 -1 10 4 10 6 0
11 5 11 10 0 6 12 22 26 35 15 14 23 25 18 25 -5 1 2 10 15 20 13 11 20 20 17
20 -7 0 4 14 35 49 9 10 25 32 35 50 10 17 22 31 26 31 4 0 6 29 6 63 -1 35 2
69 6 75 3 6 3 13 -2 15 -4 3 -6 23 -5 44 2 21 4 190 5 376 1 232 5 337 12 337
8 0 8 3 0 8 -15 9 -14 253 1 244 5 -3 5 1 -2 9 -17 21 -17 22 -4 48 8 14 9 21
2 17 -14 -9 -10 36 4 46 6 5 6 8 -1 8 -6 0 -11 13 -11 30 0 18 4 27 11 23 6
-4 5 1 -3 10 -9 11 -10 17 -2 17 13 0 10 22 -4 33 -6 4 -5 10 4 16 9 6 10 11
2 15 -6 4 -9 11 -6 16 3 4 -2 10 -10 14 -8 3 -15 1 -15 -5 0 -6 -6 -6 -18 0
-11 6 -24 6 -34 0 -11 -6 -19 -5 -23 1 -5 8 -11 7 -21 -1 -11 -9 -17 -9 -28 0
-8 7 -17 8 -20 3 -7 -12 -58 -13 -72 -1 -7 6 -16 4 -24 -6z m20 -5 c0 -5 -5
-10 -11 -10 -5 0 -7 5 -4 10 3 6 8 10 11 10 2 0 4 -4 4 -10z"/>
<path d="M4676 5688 c3 -5 10 -6 15 -3 13 9 11 12 -6 12 -8 0 -12 -4 -9 -9z"/>
</g>
</svg>
